<svg width="18" height="18" viewBox="0 0 18 18" fill="none" xmlns="http://www.w3.org/2000/svg">
<path d="M17.0234 8.83398C17.0234 9.20981 16.8793 9.57312 16.6099 9.83619C16.3467 10.1055 15.9833 10.2559 15.6073 10.2559H9.94271V15.9184C9.94271 16.2942 9.79233 16.6575 9.52288 16.9206C9.25971 17.1837 8.90254 17.334 8.52657 17.334C8.1506 17.334 7.78717 17.1837 7.52399 16.9206C7.25455 16.6575 7.10416 16.2942 7.10416 15.9184V10.2559H1.43958C1.06361 10.2559 0.700179 10.1055 0.437002 9.83619C0.173825 9.57312 0.0234375 9.20981 0.0234375 8.83398C0.0234375 8.45815 0.173825 8.10112 0.437002 7.83177C0.700179 7.56869 1.06361 7.41836 1.43958 7.41836H7.10416V1.75587C7.10416 1.38004 7.25455 1.01674 7.52399 0.75366C7.78717 0.484316 8.1506 0.333984 8.52657 0.333984C8.90254 0.333984 9.25971 0.484316 9.52288 0.75366C9.79233 1.01674 9.94271 1.38004 9.94271 1.75587V7.41836H15.6073C15.9833 7.41836 16.3467 7.56869 16.6099 7.83177C16.8793 8.10112 17.0234 8.45815 17.0234 8.83398Z" fill="#53B175"/>
</svg>
