<svg width="18" height="15" viewBox="0 0 18 15" fill="none" xmlns="http://www.w3.org/2000/svg">
<path d="M9.79089 13.9039L9.78928 13.9054C9.34694 14.307 8.66471 14.3068 8.22244 13.8994L8.22004 13.8972L8.12838 13.8139L8.1275 13.8131C5.92953 11.8245 4.15525 10.216 2.93744 8.70639C1.72692 7.20587 1.11839 5.86512 1.16674 4.41775C1.21145 3.15487 1.85964 1.94611 2.89843 1.23884L2.89871 1.23866C4.85674 -0.0963609 7.29361 0.514262 8.62022 2.067L9.00037 2.51195L9.38052 2.067C10.7082 0.513047 13.1445 -0.103445 15.101 1.23793L15.1023 1.23884C16.1412 1.94619 16.7894 3.15514 16.834 4.41818L16.834 4.41857C16.8862 5.86522 16.2783 7.20555 15.0663 8.70858C13.8514 10.2153 12.083 11.8221 9.89498 13.81L9.87422 13.8289L9.87247 13.8305L9.79089 13.9039Z" stroke="#F3603F"/>
</svg>
